<?xml version="1.0" encoding="UTF-8" standalone="no"?>
<svg
   width="600"
   height="600"
   viewBox="0 0 600 600"
   version="1.1"
   id="svg3"
   sodipodi:docname="circular-crossings.svg"
   inkscape:export-filename="circular-crossings.pdf"
   inkscape:export-xdpi="96"
   inkscape:export-ydpi="96"
   inkscape:version="1.3.2 (091e20e, 2023-11-25, custom)"
   xmlns:inkscape="http://www.inkscape.org/namespaces/inkscape"
   xmlns:sodipodi="http://sodipodi.sourceforge.net/DTD/sodipodi-0.dtd"
   xmlns:xlink="http://www.w3.org/1999/xlink"
   xmlns="http://www.w3.org/2000/svg"
   xmlns:svg="http://www.w3.org/2000/svg"
   xmlns:rdf="http://www.w3.org/1999/02/22-rdf-syntax-ns#"
   xmlns:cc="http://creativecommons.org/ns#"
   xmlns:dc="http://purl.org/dc/elements/1.1/">
  <sodipodi:namedview
     id="namedview3"
     pagecolor="#ffffff"
     bordercolor="#eeeeee"
     borderopacity="1"
     inkscape:showpageshadow="0"
     inkscape:pageopacity="0"
     inkscape:pagecheckerboard="0"
     inkscape:deskcolor="#505050"
     inkscape:zoom="0.79841839"
     inkscape:cx="217.30461"
     inkscape:cy="298.71556"
     inkscape:window-width="1440"
     inkscape:window-height="900"
     inkscape:window-x="0"
     inkscape:window-y="0"
     inkscape:window-maximized="0"
     inkscape:current-layer="svg3" />
  <title
     id="title1">Twelve-crossing decorative circular cross knot.</title>
  <defs
     id="defs1">
    <path
       id="Main"
       d="M-225.32,0 C-225.32,-19.8821,-209.202,-36,-189.32,-36 C-183.001,-36,-176.793,-34.3364,-171.32,-31.1768 L-100,10 C-69.5959,27.5535,-35.1069,36.7949,0,36.7949 C35.1069,36.7949,69.5962,27.5535,100,10 L171.32,-31.1768 C176.793,-34.3362,183.001,-36,189.32,-36 C209.202,-36,225.32,-19.8821,225.32,0 C225.32,124.441,124.441,225.32,0,225.32 C-19.8821,225.32,-36,209.202,-36,189.32 C-36,183.001,-34.3364,176.793,-31.1768,171.32 L10,100 C27.5535,69.5959,36.7949,35.1069,36.7949,0 C36.7949,-35.1069,27.5535,-69.5962,10,-100 L-31.1768,-171.32 C-34.3364,-176.793,-36,-183.001,-36,-189.32 C-36,-209.202,-19.8821,-225.32,0,-225.32 C124.441,-225.32,225.32,-124.441,225.32,0 C225.32,19.8821,209.202,36,189.32,36 C183.001,36,176.793,34.3364,171.32,31.1768 L100,-10 C69.5962,-27.5535,35.1069,-36.7949,0,-36.7949 C-35.1069,-36.7949,-69.5962,-27.5535,-100,-10 L-171.32,31.1768 C-176.793,34.3364,-183.001,36,-189.32,36 C-209.202,36,-225.32,19.8821,-225.32,0 C-225.32,-124.441,-124.441,-225.32,0,-225.32 C19.8821,-225.32,36,-209.202,36,-189.32 C36,-183.001,34.3364,-176.793,31.1768,-171.32 L-10,-100 C-27.5535,-69.5962,-36.7949,-35.1069,-36.7949,0 C-36.7949,35.1069,-27.5535,69.5959,-10,100 L31.1768,171.32 C34.3364,176.793,36,183.001,36,189.32 C36,209.202,19.8821,225.32,0,225.32 C-124.441,225.32,-225.32,124.441,-225.32,0Z" />
  </defs>
  <g
     transform="translate(300,300) scale(1.198463531,1.198463531)"
     fill="none"
     stroke-width="38.75"
     stroke="rgb(0,0,0)"
     id="g3">
    <use
       xlink:href="#Main"
       stroke-width="50"
       stroke="rgb(255,255,255)"
       id="use1" />
    <use
       xlink:href="#Main"
       id="use2" />
    <path
       stroke-width="50"
       stroke="rgb(255,255,255)"
       d="M-3.49048,36.7644 C-24.4741,36.3982,-45.2698,32.731,-65.1135,25.8984 M192.458,35.8628 C211.053,34.2361,225.32,18.666,225.32,0 C225.32,-21.6663,222.195,-43.22,216.042,-63.9944 M-78.146,-20.8958 C-85.6458,-17.7124,-92.9443,-14.0735,-100,-10 L-150,18.8674 M-36.7644,-3.49048 C-36.3982,-24.4741,-32.731,-45.2698,-25.8984,-65.1135 M-35.8628,192.458 C-34.2361,211.053,-18.666,225.32,0,225.32 C21.6663,225.32,43.22,222.195,63.9944,216.042 M20.8958,-78.146 C17.7124,-85.6458,14.0735,-92.9443,10,-100 L-18.8674,-150 M3.49048,-36.7644 C24.4741,-36.3982,45.2698,-32.731,65.1135,-25.8984 M-192.458,-35.8628 C-211.053,-34.2361,-225.32,-18.666,-225.32,0 C-225.32,21.6663,-222.195,43.22,-216.042,63.9944 M78.146,20.8958 C85.6458,17.7124,92.9443,14.0735,100,10 L150,-18.8674 M36.7644,3.49048 C36.3982,24.4741,32.731,45.2698,25.8984,65.1135 M35.8628,-192.458 C34.2361,-211.053,18.666,-225.32,0,-225.32 C-21.6663,-225.32,-43.22,-222.195,-63.9944,-216.042 M-20.8958,78.146 C-17.7124,85.6458,-14.0735,92.9443,-10,100 L18.8674,150"
       id="path2" />
    <path
       d="M0,36.7949 C-23.3301,36.7949,-46.4807,32.7126,-68.4038,24.7334 M191.832,35.9121 C210.693,34.5933,225.32,18.9075,225.32,0 C225.32,-22.9846,221.803,-45.8342,214.892,-67.7551 M-74.9211,-22.2317 C-83.5552,-18.7434,-91.9353,-14.656,-100,-10 L-152,20.022 M-36.7949,0 C-36.7949,-23.3301,-32.7126,-46.4807,-24.7334,-68.4038 M-35.9121,191.832 C-34.5933,210.693,-18.9075,225.32,0,225.32 C22.9846,225.32,45.8342,221.803,67.7551,214.892 M22.2317,-74.9211 C18.7434,-83.5552,14.656,-91.9353,10,-100 L-20.022,-152 M0,-36.7949 C23.3301,-36.7949,46.4807,-32.7126,68.4038,-24.7334 M-191.832,-35.9121 C-210.693,-34.5933,-225.32,-18.9075,-225.32,0 C-225.32,22.9846,-221.803,45.8342,-214.892,67.7551 M74.9211,22.2317 C83.5552,18.7434,91.9353,14.656,100,10 L152,-20.022 M36.7949,0 C36.7949,23.3301,32.7126,46.4807,24.7334,68.4038 M35.9121,-191.832 C34.5933,-210.693,18.9075,-225.32,0,-225.32 C-22.9846,-225.32,-45.8342,-221.803,-67.7551,-214.892 M-22.2317,74.9211 C-18.7434,83.5552,-14.656,91.9353,-10,100 L20.022,152"
       id="path3" />
  </g>
  <metadata
     id="metadata1">
    <rdf:RDF>
      <cc:Work
         rdf:about="">
        <dc:title>Twelve-crossing decorative circular cross knot.</dc:title>
      </cc:Work>
    </rdf:RDF>
  </metadata>
</svg>
